
Open SVG

Paste markup
Demo
Contribute
About
Powered by the incredible SVGO


IMAGE
CODE
2.03k - 15.52% saving
<svg version="1" xmlns="http://www.w3.org/2000/svg" width="200" height="200" viewBox="0 0 150.000000 150.000000"><path d="M62.3 22.5c-15.1 3.3-29.3 14.6-36.4 29-19.3 39.2 13.2 83.9 56.4 77.7 16.7-2.4 32.4-13.4 40.2-28.4 21.6-41-14.7-88.2-60.2-78.3zM86 25c8.3 1.6 19 7.3 25.1 13.5 5.4 5.5 12.1 16.7 13.2 22.1.3 1.6 1.1 5.4 1.7 8.4 1.2 5.8.5 17.5-1.1 18.5-.5.4-.9 1.8-.9 3.3 0 4.6-7.4 16.4-14.1 22.6-11.7 10.9-26.9 15.7-42.4 13.5-3.8-.5-7.6-1.1-8.2-1.1-.7-.1-1.3-.5-1.3-1 0-.4-.9-.8-1.9-.8-3.6 0-10.6-4.5-17.1-11.1-7.6-7.7-8.2-8.4-10.8-13.5-7.5-14.7-6.9-35.4 1.3-49.9 5.1-8.9 11.7-15.2 21.1-20.3C59.5 24.4 74 22.7 86 25z"/><path d="M62 29c-.8.5-4.6 2.2-8.3 3.9-12.3 5.5-24.2 20.7-26.1 33.5-.4 2.6-.9 5.6-1.1 6.7-1.7 8.6 7.8 32.9 12.8 32.9 1.6 0 65.1-63.5 65.5-65.4.5-2.1-5.4-6.1-13.8-9.6-6.5-2.7-8.3-3-17.4-2.9-5.5 0-10.8.4-11.6.9zm23.5 2.5c5.8 1.6 14.7 5.8 16.5 8 .6.7-9 11.1-30.9 32.9l-31.9 31.9-2.6-4c-22.5-34 9.5-79 48.9-68.8z"/><path d="M68.5 37.2C58.2 42.8 56.4 54.7 64.7 62l3.6 3.2 9.8-9.8C83.6 50 88 45.1 88 44.5c0-1.4-4.7-5.8-7.7-7.4-2.8-1.4-9.2-1.4-11.8.1zm13.3 3.5c1.3.8 2.6 2.1 2.9 2.9.7 1.8-2.6 5.6-4 4.7-.5-.3-.7-.2-.4.4.3.5-2.3 3.8-5.8 7.3-6.3 6.2-6.5 6.3-8.4 4.6-5.2-4.7-5.1-15 .2-19 1.8-1.3 4.1-2.6 5.2-2.9 2.8-.7 7.6.2 10.3 2zM48 78v8l4.1-4.5c2.3-2.5 5.9-6.1 8-8L64 70H48v8zm7.3-2.5c-4 4.8-5.3 5.1-5.3 1.1 0-4.1.3-4.4 4.6-4.4H58l-2.7 3.3zM97 56.5c-14 14-14.4 15.2-4.2 15.7l5.5.3v14.8c0 9.6-.5 15.3-1.2 16-.8.8-1.1-2.3-1.1-11.9-.1-13.6-.9-16.4-4.7-16.4-3.9 0-4.3 1.7-4.3 20.2V113H62v-7.3c0-3.9-.4-7.8-.9-8.5-1.3-2.2-4.4-1-6.6 2.5-1.1 1.8-2.5 3.2-3.1 3.3-1.3 0-7.4 6.3-7.4 7.6 0 1 4.5 5.4 5.5 5.4.3 0 2.2 1.1 4.3 2.4 4.3 2.8 19 5.9 24.2 5.2 10.5-1.5 22.4-6.9 28.5-13.1 12.6-12.9 16.2-21.6 15.2-37.8-.6-9.7-2.4-15.9-6.5-21.7-5.6-7.8-4.5-8.1-18.2 5.5zm17.9-1.4c10.2 20.4 3.8 45.2-14.8 57.6-8.8 6-14.9 7.8-25.6 7.8-10.1 0-16.3-1.7-24-6.6l-4.7-3 2.3-2.5c1.4-1.5 3.4-2.4 5.2-2.4 2.6 0 2.9-.3 2.5-2.5-.4-1.6.2-3.1 1.6-4.4l2.1-2-.3 9-.4 8.9H90.1l-.3-19c-.3-18.4-.2-19 1.7-19s2 .6 1.7 14.5l-.4 14.5h8.2V70H86.5L98 58.5c8.6-8.6 11.7-11.2 12.7-10.4.7.6 2.6 3.8 4.2 7z"/></svg>