<?xml version="1.0" encoding="UTF-8" standalone="no"?>
<!-- Created with Inkscape (http://www.inkscape.org/) -->

<svg
   xmlns:dc="http://purl.org/dc/elements/1.1/"
   xmlns:cc="http://creativecommons.org/ns#"
   xmlns:rdf="http://www.w3.org/1999/02/22-rdf-syntax-ns#"
   xmlns:svg="http://www.w3.org/2000/svg"
   xmlns="http://www.w3.org/2000/svg"
   xmlns:sodipodi="http://sodipodi.sourceforge.net/DTD/sodipodi-0.dtd"
   xmlns:inkscape="http://www.inkscape.org/namespaces/inkscape"
   width="125.74138mm"
   height="125.37273mm"
   viewBox="0 0 125.74138 125.37273"
   version="1.1"
   id="svg1509"
   inkscape:version="0.92.2 (5c3e80d, 2017-08-06)"
   sodipodi:docname="uni-parametres.svg">
  <defs
     id="defs1503">
    <clipPath
       clipPathUnits="userSpaceOnUse"
       id="clipPath1336">
      <path
         inkscape:connector-curvature="0"
         id="path1338"
         d="m -553.47185,149.53159 -7.87824,-62.192586 66.95726,-38.221867 55.171,35.737827 3.908,64.676626 z"
         style="fill:#575757;fill-opacity:1;stroke:#575757;stroke-width:7.58393717;stroke-linecap:butt;stroke-linejoin:round;stroke-miterlimit:4;stroke-dasharray:none;stroke-opacity:1"
         sodipodi:nodetypes="cccccc" />
    </clipPath>
    <clipPath
       clipPathUnits="userSpaceOnUse"
       id="clipPath1454">
      <path
         inkscape:connector-curvature="0"
         id="path1456"
         d="m -547.06859,115.84677 20.16422,48.10538 c 1.35583,3.23464 5.0909,4.76332 8.32554,3.40744 l 63.35831,-26.55771 c 3.23464,-1.35586 4.76332,-5.09093 3.40744,-8.32557 l -20.16419,-48.105349 z"
         style="fill:#e6e7e8;fill-opacity:1;stroke-width:0.15902604" />
    </clipPath>
  </defs>
  <sodipodi:namedview
     id="base"
     pagecolor="#ffffff"
     bordercolor="#666666"
     borderopacity="1.0"
     inkscape:pageopacity="0.0"
     inkscape:pageshadow="2"
     inkscape:zoom="0.35"
     inkscape:cx="-26.664196"
     inkscape:cy="-128.78943"
     inkscape:document-units="mm"
     inkscape:current-layer="layer1"
     showgrid="false"
     inkscape:window-width="1920"
     inkscape:window-height="1001"
     inkscape:window-x="-9"
     inkscape:window-y="-9"
     inkscape:window-maximized="1" />
  <metadata
     id="metadata1506">
    <rdf:RDF>
      <cc:Work
         rdf:about="">
        <dc:format>image/svg+xml</dc:format>
        <dc:type
           rdf:resource="http://purl.org/dc/dcmitype/StillImage" />
        <dc:title></dc:title>
      </cc:Work>
    </rdf:RDF>
  </metadata>
  <g
     inkscape:label="Calque 1"
     inkscape:groupmode="layer"
     id="layer1"
     transform="translate(53.799265,10.614939)">
    <g
       transform="translate(503.46428,-55.940474)"
       id="g1474"
       inkscape:export-xdpi="90"
       inkscape:export-ydpi="90">
      <path
         style="fill:#c0c0c0;fill-opacity:1;stroke:none;stroke-width:5;stroke-linecap:butt;stroke-linejoin:round;stroke-miterlimit:4;stroke-dasharray:none;stroke-opacity:1"
         d="M -551.50076,99.562072 -446.5606,59.518408 -462.52814,170.69827 Z"
         id="path821-5-1-9-2-5"
         inkscape:connector-curvature="0" />
      <path
         style="fill:#303030;fill-opacity:1;stroke:#303030;stroke-width:7.58393717;stroke-linecap:butt;stroke-linejoin:round;stroke-miterlimit:4;stroke-dasharray:none;stroke-opacity:1"
         d="m -553.47186,149.53159 59.07901,-100.414455 59.079,100.414455 z"
         id="path821-7-5-9-5"
         inkscape:connector-curvature="0" />
      <g
         transform="translate(0,3.7207034)"
         clip-path="url(#clipPath1336)"
         id="g1262">
        <g
           transform="matrix(0.14666272,-0.06147621,0.06147621,0.14666272,-555.44003,95.926691)"
           id="g4-0-3">
          <path
             style="fill:#e6e7e8;fill-opacity:1"
             d="m 0,134 v 328 c 0,22.055 17.945,40 40,40 h 432 c 22.055,0 40,-17.945 40,-40 V 134 Z"
             id="path2-7-7-9"
             inkscape:connector-curvature="0" />
        </g>
        <path
           id="path10-1-9-1-4-4"
           d="m -470.7588,87.617408 18.73818,44.733992 c 1.30541,3.11644 -0.3671,7.10142 -3.4956,8.37773 -11.40435,4.57132 -39.21207,15.94598 -52.99866,21.47218 14.40239,-13.40879 32.2363,-44.01709 37.75608,-74.583902 z"
           style="fill:#d8d7da;stroke-width:0.19119646"
           inkscape:connector-curvature="0"
           sodipodi:nodetypes="csccc" />
        <g
           style="fill:#969696;fill-opacity:1"
           transform="matrix(0.14666272,-0.06147621,0.06147621,0.14666272,-553.16824,101.67299)"
           id="g8-8-4">
          <path
             sodipodi:nodetypes="sssccss"
             style="fill:#969696;fill-opacity:1"
             d="M 472,22 H 40 C 17.945,22 0,39.945 0,62 L 0.91904276,97.027236 H 512.91904 L 512,62 C 511.42152,39.952588 494.054,22 472,22 Z"
             id="path6-1-4-6"
             inkscape:connector-curvature="0" />
        </g>
        <path
           id="path2"
           d="m -500.32573,127.45721 0.87408,-5.35431 -2.08223,-0.33991 c -0.0926,-1.7711 -0.48268,-3.59077 -1.21877,-5.16153 l 1.7301,-1.24451 -3.1735,-4.41176 -1.7301,1.24451 c -1.25512,-1.19741 -2.85628,-2.14592 -4.50598,-2.79697 l 0.40214,-1.99573 -5.35431,-0.87406 -0.33991,2.08223 c -1.77111,0.0926 -3.59077,0.48268 -5.16153,1.21877 l -1.24451,-1.7301 -4.41176,3.1735 1.2445,1.7301 c -1.1974,1.25512 -2.14591,2.85627 -2.79695,4.50597 l -2.08224,-0.33991 -0.87407,5.3543 2.08223,0.33993 c 0.0926,1.7711 0.48268,3.59077 1.21877,5.16152 l -1.7301,1.24451 3.1735,4.41177 1.73011,-1.24451 c 1.25512,1.19741 2.85627,2.14591 4.50597,2.79696 l -0.40214,1.99572 5.35431,0.87407 0.33991,-2.08223 c 1.77111,-0.0926 3.59077,-0.48268 5.16153,-1.21877 l 1.24451,1.73011 4.41177,-3.1735 -1.24451,-1.73011 c 1.1974,-1.25513 2.14591,-2.85627 2.79695,-4.50597 z m -15.8428,0.23857 c -2.97461,-0.48559 -4.96583,-3.25377 -4.48024,-6.22838 0.4856,-2.97462 3.25377,-4.96583 6.22838,-4.48024 2.97461,0.4856 4.96583,3.25377 4.48024,6.22838 -0.4856,2.97461 -3.25376,4.96583 -6.22838,4.48024 z"
           style="fill:#ffffff;fill-opacity:1;stroke-width:0.13320082"
           inkscape:connector-curvature="0" />
        <path
           id="path4-8"
           d="m -501.53388,121.76299 c -0.0926,-1.7711 -0.48268,-3.59077 -1.21877,-5.16153 l 1.7301,-1.24451 -3.1735,-4.41176 -1.7301,1.24451 c -1.25512,-1.19741 -2.85628,-2.14592 -4.50598,-2.79697 l 0.40214,-1.99573 -2.52843,-0.41275 -1.71324,10.02719 c 2.88811,0.54782 4.87932,3.31599 4.33151,6.2041 -0.4856,2.97461 -3.16727,4.90361 -6.07965,4.50452 l -1.62675,9.96496 2.52843,0.41275 0.33991,-2.08223 c 1.77111,-0.0926 3.59077,-0.48268 5.16153,-1.21877 l 1.24451,1.73011 4.41177,-3.1735 -1.24451,-1.73011 c 1.1974,-1.25513 2.14591,-2.85627 2.79695,-4.50597 l 2.08223,0.33991 0.87408,-5.35431 z"
           style="fill:#f4f4f4;fill-opacity:1;stroke-width:0.13320082"
           inkscape:connector-curvature="0" />
        <path
           clip-path="url(#clipPath1454)"
           id="path6"
           d="m -474.89449,119.92765 -6.39543,-1.04403 -0.41275,2.52842 c -2.15507,0.10628 -4.20997,0.5343 -6.04025,1.45706 l -1.49341,-2.07612 -5.19032,3.73353 1.49341,2.07612 c -1.39469,1.52831 -2.51621,3.2539 -3.30231,5.2633 l -2.52843,-0.41276 -1.04403,6.39543 2.52843,0.41275 c 0.10627,2.15507 0.53429,4.20997 1.45705,6.04026 l -2.07612,1.4934 3.73353,5.19032 2.07613,-1.49341 c 1.52831,1.39469 3.2539,2.51621 5.26329,3.30232 l -0.41276,2.52842 6.39543,1.04403 0.41275,-2.52842 c 2.15508,-0.10628 4.20997,-0.5343 6.04024,-1.45707 l 1.49342,2.07613 5.19031,-3.73353 -1.49341,-2.07613 c 1.3947,-1.5283 2.51622,-3.25389 3.30233,-5.26329 l 2.52842,0.41276 1.04403,-6.39543 -2.52842,-0.41275 c -0.10628,-2.15507 -0.53429,-4.20997 -1.45706,-6.04024 l 2.07613,-1.49342 -3.73353,-5.19031 -2.07613,1.49341 c -1.52831,-1.3947 -3.25391,-2.51621 -5.2633,-3.30233 z m 0.16121,18.65503 c -0.4962,3.50731 -3.86991,5.93411 -7.35295,5.28917 -3.4208,-0.55843 -5.8476,-3.93214 -5.28916,-7.35294 0.64494,-3.48304 3.93214,-5.84761 7.35295,-5.28917 3.48303,0.64493 5.8476,3.93213 5.28916,7.35294 z"
           style="fill:#5b5b5b;fill-opacity:1;stroke-width:0.13320082"
           inkscape:connector-curvature="0" />
        <path
           id="path8"
           d="m -481.70267,121.41204 c -2.15507,0.10628 -4.20997,0.5343 -6.04025,1.45706 l -1.49341,-2.07612 -5.19032,3.73353 1.49341,2.07612 c -1.39469,1.52831 -2.51621,3.2539 -3.30231,5.2633 l -2.52843,-0.41276 -0.50988,3.12335 11.89847,1.94239 c 0.64494,-3.48304 3.84563,-5.78539 7.32867,-5.14044 3.4208,0.55842 5.78538,3.84563 5.31344,7.20421 l 11.89846,1.94239 0.50988,-3.12336 -2.52842,-0.41275 c -0.10628,-2.15507 -0.53429,-4.20997 -1.45706,-6.04024 l 2.07613,-1.49342 -3.73353,-5.19031 -2.07613,1.49341 c -1.52831,-1.3947 -3.25391,-2.51621 -5.2633,-3.30233 l 0.41276,-2.52842 -6.39543,-1.04403 z"
           style="fill:#343434;fill-opacity:1;stroke-width:0.13320082"
           inkscape:connector-curvature="0" />
        <path
           id="path10-6"
           d="m -481.85778,104.59035 -1.86676,-2.59516 -1.03807,0.74671 c -0.79527,-0.74061 -1.70132,-1.27026 -2.63164,-1.65117 l 0.19423,-1.189853 -3.12334,-0.50987 -0.19425,1.189843 c -1.00317,0.0653 -2.03061,0.27929 -3.02012,0.72854 l -0.7467,-1.03806 -2.59516,1.86676 0.74671,1.03807 c -0.7406,0.79526 -1.27025,1.70131 -1.65116,2.63163 l -1.18985,-0.19423 -0.68289,3.2478 1.18985,0.19424 c 0.0653,1.00316 0.27928,2.03062 0.72853,3.02012 l -1.03806,0.74671 1.86676,2.59516 1.03807,-0.74671 c 0.79526,0.7406 1.70132,1.27024 2.63164,1.65115 l -0.19424,1.18986 3.12335,0.50987 0.19424,-1.18984 c 1.00317,-0.0653 2.03062,-0.2793 3.02012,-0.72854 l 0.7467,1.03806 2.59516,-1.86676 -0.74671,-1.03807 c 0.74061,-0.79526 1.27025,-1.70131 1.65117,-2.63164 l 1.18985,0.19423 0.50987,-3.12334 -1.01683,-0.31869 c -0.0653,-1.00317 -0.27929,-2.03062 -0.72853,-3.02012 z m -6.59258,6.7112 c -1.47058,1.05783 -3.40409,0.74218 -4.46192,-0.7284 -1.05783,-1.47058 -0.7422,-3.40409 0.72839,-4.46192 1.47059,-1.05783 3.40409,-0.74219 4.46193,0.72839 1.05782,1.47058 0.74219,3.40409 -0.7284,4.46193 z"
           style="fill:#b9b9b9;fill-opacity:1;stroke-width:0.13320082"
           inkscape:connector-curvature="0" />
        <path
           id="path12"
           d="m -484.76261,102.7419 c -0.79527,-0.74061 -1.70132,-1.27026 -2.63164,-1.65117 l 0.19423,-1.189853 -3.12334,-0.50987 -0.19425,1.189843 c -1.00317,0.0653 -2.03061,0.27929 -3.02012,0.72854 l -0.7467,-1.03806 -1.29758,0.93338 3.48463,4.8443 c 1.38408,-0.99561 3.46631,-0.6557 4.46192,0.72839 0.99561,1.38408 0.7422,3.40409 -0.72839,4.46192 l 3.48462,4.84429 1.29758,-0.93338 -0.74671,-1.03807 c 0.74061,-0.79526 1.27025,-1.70131 1.65117,-2.63164 l 1.18985,0.19423 0.50987,-3.12334 -1.18984,-0.19424 c -0.0653,-1.00317 -0.27929,-2.03062 -0.72853,-3.02012 l 1.03806,-0.7467 -1.86676,-2.59516 z"
           style="fill:#737373;fill-opacity:1;stroke-width:0.13320082"
           inkscape:connector-curvature="0" />
      </g>
    </g>
  </g>
</svg>
