
Open SVG

Paste markup
Demo
Contribute
About
Powered by the incredible SVGO


IMAGE
CODE
3.28k - 19.16% saving
<svg version="1" xmlns="http://www.w3.org/2000/svg" width="200" height="200" viewBox="0 0 150.000000 150.000000"><path d="M65.5 28.4l-8 2.3-.3 6.8c-.2 3.7.1 7.2.5 7.6.5.5 4.2 0 8.3-1.1 4.1-1 7.5-1.8 7.7-1.7.1.2 0 1.3-.4 2.5-.4 1.6-4.9 4.4-17.4 10.9C43.8 62 39 65 39 66.2c0 1.9 3.4 2.5 4.5.8 1.6-2.5 3-.8 2.7 3-.5 4.6.6 4.2-16.7 6.5-6.6.8-12.3 1.9-12.8 2.4-1.6 1.6.4 3.3 3.4 2.9l2.9-.5V125h105V81.3l2.9.5c2.9.4 5-1.3 3.4-2.9-.4-.4-6-1.5-12.3-2.4-19.1-2.5-17.5-1.9-17.5-6.5 0-3.8 1.5-5.4 3-3 1.1 1.7 4.5 1.1 4.5-.8 0-1.2-4.8-4.2-17-10.5l-16.9-8.8-.3-10.2c-.4-12 .1-11.7-12.3-8.3zm8 6c0 3.3-.3 3.5-4.5 4.6-2.5.6-5.3 1.3-6.2 1.6-1.5.4-1.8-.1-1.8-3 0-3.3.3-3.6 4.3-4.6 2.3-.6 4.7-1.3 5.2-1.5 2.4-.9 3-.3 3 2.9zm25.7 28.5c.4.4.8 13.5.8 29.1l.1 28.5H85.6l.3-4.8c.4-6.9-.6-7.7-10.4-7.7s-10.8.8-10.4 7.7l.3 4.8h-7.2c-4 0-7.2-.3-7.2-.8V63.2l12.3-6.5 12.2-6.5 11.5 6c6.3 3.4 11.8 6.4 12.2 6.7zM47.7 77.2c-.3.8-.6.5-.6-.6-.1-1.1.2-1.7.5-1.3.3.3.4 1.2.1 1.9zm57.3-.8c0 .3-.4.8-1 1.1-.5.3-1 .1-1-.4 0-.6.5-1.1 1-1.1.6 0 1 .2 1 .4zM46 99.5V121H27V81.1l4.8-.6c4.5-.6 13.4-2.1 14-2.4.1 0 .2 9.6.2 21.4zm73.3-19l4.7.6V121h-19V78.3l4.8.8c2.6.4 6.8 1 9.5 1.4zM26 80c0 .5-.4 1-.9 1-.6 0-1.3-.5-1.6-1-.3-.6.1-1 .9-1 .9 0 1.6.4 1.6 1zm101.5 0c-.3.5-1 1-1.6 1-.5 0-.9-.5-.9-1 0-.6.7-1 1.6-1 .8 0 1.2.4.9 1zm-50.8 31.6c-.3.3-1.2.4-1.9.1-.8-.3-.5-.6.6-.6 1.1-.1 1.7.2 1.3.5zm-3.3 5.1c-.1 2.6-.6 3.9-1.6 4.1-1.2.2-1.7-.8-2-3.7-.3-3.6-.1-4.1 1.7-4.1 1.7 0 2 .6 1.9 3.7zm7.8.4c-.3 2.9-.8 3.9-2 3.7-1-.2-1.5-1.5-1.6-4.1-.1-3.1.2-3.7 1.9-3.7 1.8 0 2 .5 1.7 4.1zM50 122c1.2.8.9 1-1.3 1-1.6 0-2.6-.4-2.2-1 .8-1.2 1.6-1.2 3.5 0zm19 0c0 .5-1 1-2.2 1-1.9 0-2-.2-.8-1 1.9-1.3 3-1.3 3 0zm7.5 0c.3.5-.1 1-1 1s-1.3-.5-1-1c.3-.6.8-1 1-1 .2 0 .7.4 1 1zm8 0c.3.5-.1 1-1 1s-1.3-.5-1-1c.3-.6.8-1 1-1 .2 0 .7.4 1 1zm19 0c.3.5-.1 1-1 1s-1.3-.5-1-1c.3-.6.8-1 1-1 .2 0 .7.4 1 1z"/><path d="M55.4 71.3c-.3.8-.4 4.3-.2 7.8l.3 6.4h11v-15l-5.3-.3c-3.8-.2-5.4.1-5.8 1.1zm7.6 6.9c0 3.1-.4 3.8-2 3.8s-2-.7-2-3.8c0-3.1.4-3.8 2-3.8s2 .7 2 3.8zM69.4 71.3c-.3.8-.4 4.3-.2 7.8l.3 6.4h12v-15l-5.8-.3c-4.2-.2-5.9.1-6.3 1.1zm8.4 7.1c.3 3.4.1 3.7-2 3.4-1.5-.2-2.4-1.1-2.6-2.6-.5-3.4.4-5.1 2.5-4.8 1.3.2 1.9 1.3 2.1 4zM84.4 71.3c-.3.8-.4 4.3-.2 7.8l.3 6.4h11v-15l-5.3-.3c-3.8-.2-5.4.1-5.8 1.1zm7.6 6.9c0 3.1-.4 3.8-2 3.8s-2-.7-2-3.8c0-3.1.4-3.8 2-3.8s2 .7 2 3.8zM55.4 90.3c-.3.8-.4 4.3-.2 7.8l.3 6.4h11v-15l-5.3-.3c-3.8-.2-5.4.1-5.8 1.1zm7.6 6.5c0 3.1-.4 3.8-2 3.8s-2-.7-2-3.8c0-3.1.4-3.8 2-3.8s2 .7 2 3.8zM69.4 90.3c-.3.8-.4 4.3-.2 7.8l.3 6.4h12v-15l-5.8-.3c-4.2-.2-5.9.1-6.3 1.1zm8.4 6.4c-.2 3-.7 3.8-2.3 3.8-1.3 0-2.1-.8-2.3-2.3-.5-3.4.5-5.2 2.8-5.2 1.8 0 2.1.5 1.8 3.7zM84.4 90.3c-.3.8-.4 4.3-.2 7.8l.3 6.4h11v-15l-5.3-.3c-3.8-.2-5.4.1-5.8 1.1zm7.6 6.5c0 3.1-.4 3.8-2 3.8s-2-.7-2-3.8c0-3.1.4-3.8 2-3.8s2 .7 2 3.8zM30.4 85.4c-.3.7-.4 4-.2 7.2l.3 5.9h12l.3-7.3.3-7.2H37c-4.2 0-6.2.4-6.6 1.4zm8.6 6.1c0 3-.3 3.5-2.3 3.5-2 0-2.3-.5-2.3-3.5.1-2.9.5-3.5 2.4-3.5s2.2.5 2.2 3.5zM30.4 103.3c-.3.8-.4 4.1-.2 7.3l.3 5.9h12v-14l-5.8-.3c-4.2-.2-5.9.1-6.3 1.1zm8.6 6.2c0 3-.3 3.5-2.2 3.5-2 0-2.3-.5-2.3-3.5s.3-3.5 2.3-3.5c1.9 0 2.2.5 2.2 3.5zM108.2 91.2l.3 7.3h12v-14l-6.3-.3-6.3-.3.3 7.3zm8.4.3c0 3-.3 3.5-2.3 3.5-2 0-2.3-.5-2.3-3.5s.3-3.5 2.3-3.5c1.8 0 2.2.6 2.3 3.5zM108.4 103.3c-.3.8-.4 4.1-.2 7.3l.3 5.9h12v-14l-5.8-.3c-4.2-.2-5.9.1-6.3 1.1zm8.2 6.2c-.1 2.9-.5 3.5-2.3 3.5-2 0-2.3-.5-2.3-3.5s.3-3.5 2.3-3.5c2 0 2.3.5 2.3 3.5z"/></svg>